<svg aria-hidden="true" style="position: absolute; width: 0; height: 0; overflow: hidden;" version="1.1" xmlns="http://www.w3.org/2000/svg" xmlns:xlink="http://www.w3.org/1999/xlink">
<defs>
<symbol id="icon-email" viewBox="0 0 32 32">
<path d="M26.667 5.333h-21.333c-1.467 0-2.653 1.2-2.653 2.667l-0.013 16c0 1.467 1.2 2.667 2.667 2.667h21.333c1.467 0 2.667-1.2 2.667-2.667v-16c0-1.467-1.2-2.667-2.667-2.667zM26.133 11l-9.427 5.893c-0.427 0.267-0.987 0.267-1.413 0l-9.427-5.893c-0.333-0.213-0.533-0.573-0.533-0.96 0-0.893 0.973-1.427 1.733-0.96l8.933 5.587 8.933-5.587c0.76-0.467 1.733 0.067 1.733 0.96 0 0.387-0.2 0.747-0.533 0.96z"></path>
</symbol>
<symbol id="icon-phone" viewBox="0 0 32 32">
<path d="M24.882 19.774l-3.268-0.373c-0.785-0.090-1.557 0.18-2.11 0.733l-2.367 2.367c-3.641-1.853-6.626-4.825-8.478-8.478l2.38-2.38c0.553-0.553 0.823-1.325 0.733-2.11l-0.373-3.242c-0.154-1.299-1.248-2.277-2.56-2.277h-2.226c-1.454 0-2.663 1.209-2.573 2.663 0.682 10.987 9.469 19.761 20.443 20.443 1.454 0.090 2.663-1.119 2.663-2.573v-2.226c0.013-1.299-0.965-2.393-2.264-2.547z"></path>
</symbol>
<symbol id="icon-person" viewBox="0 0 32 32">
<path d="M16 16c2.947 0 5.333-2.387 5.333-5.333s-2.387-5.333-5.333-5.333c-2.947 0-5.333 2.387-5.333 5.333s2.387 5.333 5.333 5.333zM16 18.667c-3.56 0-10.667 1.787-10.667 5.333v1.333c0 0.733 0.6 1.333 1.333 1.333h18.667c0.733 0 1.333-0.6 1.333-1.333v-1.333c0-3.547-7.107-5.333-10.667-5.333z"></path>
</symbol>
<symbol id="icon-close" viewBox="0 0 32 32">
<path d="M26.667 7.303l-1.97-1.97-7.808 7.808-7.808-7.808-1.97 1.97 7.808 7.808-7.808 7.808 1.97 1.97 7.808-7.808 7.808 7.808 1.97-1.97-7.808-7.808 7.808-7.808z"></path>
</symbol>

<symbol id="icon-search" viewBox="0 0 32 32">
<path fill="none" stroke="#fff" style="stroke: var(--color1, #fff)" stroke-linejoin="round" stroke-linecap="round" stroke-miterlimit="4" stroke-width="2.6667" d="M14.667 25.333c5.891 0 10.667-4.776 10.667-10.667s-4.776-10.667-10.667-10.667c-5.891 0-10.667 4.776-10.667 10.667s4.776 10.667 10.667 10.667z"></path>
<path fill="none" stroke="#fff" style="stroke: var(--color1, #fff)" stroke-linejoin="round" stroke-linecap="round" stroke-miterlimit="4" stroke-width="2.6667" d="M28 28l-5.8-5.8"></path>
</symbol>

<symbol id="icon-logo" viewBox="0 0 32 32">
<path
        fill="none"
        stroke="#818181"
        style="stroke: var(--color1, #818181)"
        stroke-linejoin="round"
        stroke-linecap="round"
        stroke-miterlimit="4"
        stroke-width="2.6667"
        d="M26.427 2.667h-20.853c-1.605 0-2.907 1.301-2.907 2.907v20.853c0 1.605 1.301 2.907 2.907 2.907h20.853c1.605 0 2.907-1.301 2.907-2.907v-20.853c0-1.605-1.301-2.907-2.907-2.907z"
      />
<path
        fill="none"
        stroke="#818181"
        style="stroke: var(--color1, #818181)"
        stroke-linejoin="round"
        stroke-linecap="round"
        stroke-miterlimit="4"
        stroke-width="2.6667"
        d="M9.333 2.667v26.667"
      />
<path
        fill="none"
        stroke="#818181"
        style="stroke: var(--color1, #818181)"
        stroke-linejoin="round"
        stroke-linecap="round"
        stroke-miterlimit="4"
        stroke-width="2.6667"
        d="M22.667 2.667v26.667"
      />
<path
        fill="none"
        stroke="#818181"
        style="stroke: var(--color1, #818181)"
        stroke-linejoin="round"
        stroke-linecap="round"
        stroke-miterlimit="4"
        stroke-width="2.6667"
        d="M2.667 16h26.667"
      />
<path
        fill="none"
        stroke="#818181"
        style="stroke: var(--color1, #818181)"
        stroke-linejoin="round"
        stroke-linecap="round"
        stroke-miterlimit="4"
        stroke-width="2.6667"
        d="M2.667 9.333h6.667"
      />
<path
        fill="none"
        stroke="#818181"
        style="stroke: var(--color1, #818181)"
        stroke-linejoin="round"
        stroke-linecap="round"
        stroke-miterlimit="4"
        stroke-width="2.6667"
        d="M2.667 22.667h6.667"
      />
<path
        fill="none"
        stroke="#818181"
        style="stroke: var(--color1, #818181)"
        stroke-linejoin="round"
        stroke-linecap="round"
        stroke-miterlimit="4"
        stroke-width="2.6667"
        d="M22.667 22.667h6.667"
      />
<path
        fill="none"
        stroke="#818181"
        style="stroke: var(--color1, #818181)"
        stroke-linejoin="round"
        stroke-linecap="round"
        stroke-miterlimit="4"
        stroke-width="2.6667"
        d="M22.667 9.333h6.667"
      />
</symbol>

<symbol id="icon-moon" viewBox="0 0 32 32">
<path fill="#ffb500" style="fill: var(--color1, #ffb500)" d="M13.899 18.089c2.153 2.148 5.124 3.475 8.405 3.475 1.826 0 3.555-0.411 5.101-1.146l-0.072 0.031c-1.931 4.117-6.042 6.917-10.806 6.917-6.572 0-11.899-5.328-11.899-11.899 0-4.76 2.795-8.867 6.833-10.77l0.073-0.031c-0.704 1.472-1.115 3.2-1.115 5.023 0 3.28 1.33 6.25 3.48 8.399l0 0z"></path>
</symbol>
<symbol id="icon-sunny" viewBox="0 0 32 32">
<path fill="#efcc00" style="fill: var(--color1, #efcc00)" d="M24.5 16c0 4.694-3.806 8.5-8.5 8.5s-8.5-3.806-8.5-8.5c0-4.694 3.806-8.5 8.5-8.5s8.5 3.806 8.5 8.5z"></path>
<path fill="none" stroke="#efcc00" style="stroke: var(--color1, #efcc00)" stroke-linejoin="miter" stroke-linecap="round" stroke-miterlimit="10" stroke-width="1.5" d="M16 2.5v3"></path>
<path fill="none" stroke="#efcc00" style="stroke: var(--color1, #efcc00)" stroke-linejoin="miter" stroke-linecap="round" stroke-miterlimit="10" stroke-width="1.5" d="M16 26.5v3"></path>
<path fill="none" stroke="#efcc00" style="stroke: var(--color1, #efcc00)" stroke-linejoin="miter" stroke-linecap="round" stroke-miterlimit="10" stroke-width="1.5" d="M29.5 16h-3"></path>
<path fill="none" stroke="#efcc00" style="stroke: var(--color1, #efcc00)" stroke-linejoin="miter" stroke-linecap="round" stroke-miterlimit="10" stroke-width="1.5" d="M5.5 16h-3"></path>
<path fill="none" stroke="#efcc00" style="stroke: var(--color1, #efcc00)" stroke-linejoin="miter" stroke-linecap="round" stroke-miterlimit="10" stroke-width="1.5" d="M25.545 6.455l-2.12 2.12"></path>
<path fill="none" stroke="#efcc00" style="stroke: var(--color1, #efcc00)" stroke-linejoin="miter" stroke-linecap="round" stroke-miterlimit="10" stroke-width="1.5" d="M8.575 23.425l-2.12 2.12"></path>
<path fill="none" stroke="#efcc00" style="stroke: var(--color1, #efcc00)" stroke-linejoin="miter" stroke-linecap="round" stroke-miterlimit="10" stroke-width="1.5" d="M25.545 25.545l-2.12-2.12"></path>
<path fill="none" stroke="#efcc00" style="stroke: var(--color1, #efcc00)" stroke-linejoin="miter" stroke-linecap="round" stroke-miterlimit="10" stroke-width="1.5" d="M8.575 8.575l-2.12-2.12"></path>
</symbol>

<symbol id="linkedin" viewBox="0 0 32 32">
<path fill="#0077b5" style="fill: var(--color1, #0077b5)" d="M27.263 27.269h-4.739v-7.425c0-1.771-0.036-4.049-2.469-4.049-2.471 0-2.848 1.927-2.848 3.919v7.556h-4.739v-15.269h4.552v2.081h0.061c0.636-1.2 2.183-2.467 4.493-2.467 4.801 0 5.689 3.16 5.689 7.273zM7.116 9.911c-1.525 0-2.751-1.235-2.751-2.753 0-1.517 1.227-2.751 2.751-2.751 1.52 0 2.752 1.233 2.752 2.751 0 1.519-1.233 2.753-2.752 2.753zM9.492 27.269h-4.752v-15.269h4.752zM29.633 0h-27.272c-1.305 0-2.361 1.032-2.361 2.305v27.389c0 1.275 1.056 2.305 2.361 2.305h27.268c1.304 0 2.371-1.031 2.371-2.305v-27.389c0-1.273-1.067-2.305-2.371-2.305z"></path>
</symbol>

<symbol id="github" viewBox="0 0 32 32">
<path d="M16 0.396c-8.84 0-16 7.164-16 16 0 7.071 4.584 13.067 10.94 15.18 0.8 0.151 1.093-0.344 1.093-0.769 0-0.38-0.013-1.387-0.020-2.72-4.451 0.965-5.389-2.147-5.389-2.147-0.728-1.847-1.78-2.34-1.78-2.34-1.449-0.992 0.112-0.972 0.112-0.972 1.607 0.112 2.451 1.648 2.451 1.648 1.427 2.447 3.745 1.74 4.66 1.331 0.144-1.035 0.556-1.74 1.013-2.14-3.553-0.4-7.288-1.776-7.288-7.907 0-1.747 0.62-3.173 1.647-4.293-0.18-0.404-0.72-2.031 0.14-4.235 0 0 1.34-0.429 4.4 1.64 1.28-0.356 2.64-0.532 4-0.54 1.36 0.008 2.72 0.184 4 0.54 3.040-2.069 4.38-1.64 4.38-1.64 0.86 2.204 0.32 3.831 0.16 4.235 1.020 1.12 1.64 2.547 1.64 4.293 0 6.147-3.74 7.5-7.3 7.893 0.56 0.48 1.080 1.461 1.080 2.96 0 2.141-0.020 3.861-0.020 4.381 0 0.42 0.28 0.92 1.1 0.76 6.401-2.099 10.981-8.099 10.981-15.159 0-8.836-7.164-16-16-16z"></path>
</symbol>



</defs>
</svg>
